<?xml version="1.0" encoding="utf-8"?>
<!DOCTYPE svg PUBLIC "-//W3C//DTD SVG 1.0//EN" "http://www.w3.org/TR/2001/REC-SVG-20010904/DTD/svg10.dtd">
<svg version="1.0" id="Layer_1" xmlns="http://www.w3.org/2000/svg" xmlns:xlink="http://www.w3.org/1999/xlink" x="0px" y="0px"
	 viewBox="0 0 40 40" enable-background="new 0 0 40 40" xml:space="preserve">
<g>
	<path fill="#fff" d="M3.1,31.3c-0.7,0-1.5-0.3-2-0.8c-1.1-1.1-1.1-2.9,0-4L17.9,9.6c1.1-1.1,2.9-1.1,4,0c1.1,1.1,1.1,2.9,0,4
		L5.1,30.4C4.5,31,3.8,31.3,3.1,31.3z"/>
	<path fill="#fff" d="M19.7,31.3c-0.7,0-1.5-0.3-2-0.8c-1.1-1.1-1.1-2.9,0-4L34.4,9.6c0.9-0.9,2.2-1.2,3.4-0.7
		c1.2,0.5,1.9,1.6,1.9,2.9v16.6c0,1.6-1.3,2.8-2.8,2.8s-2.8-1.3-2.8-2.8V18.1L21.7,30.4C21.2,31,20.4,31.3,19.7,31.3z"/>
</g>
</svg>
