<svg id="Layer_3" data-name="Layer 3" xmlns="http://www.w3.org/2000/svg" viewBox="0 0 413.91 403.34"><defs><style>.cls-1{fill:#fff;}</style></defs><title>fatcow-white</title><path class="cls-1" d="M109,107.82l-17.29,6.79-4.29,2.87-7.2-.77-8.87,2.35-8.07,1.14-6.48-1.36-12.92-3.36-9.37,1-4.85-4.42-4.52-1.14L17,94.8,11.3,85.59l-4.15-11L1.46,66V52.71L0,41.95l1.62-9.11L3.75,18.5l5.69-10L17,0l3.95,0.42,5.62,3.24,5.94,6.59,3,9.59,1.19,7.43,7.19,7.38L50.37,42l10.51,7.07,6,5.94,10.28,3.06,8.39,2.2,6.86,4L99.64,65l10.93,3.15,2.66,6.25L99.9,75,89.7,71.26,79,66.16l-9.17-1-6.86-4-7.11-8-2.63-.28L36.46,35.19,35,30.39l-6.45-8L23.69,17.9l-5.23,6.16-4.91,8.75v12.6l1,9.4L14,66.68l3.73,2.38,5.44,11.17,3.38,5.66,10.08,5.05,4,6.38,12.84,4a25.1,25.1,0,0,0,6.86,4c3.2,1,8.45,1.56,12.32,2.62a22.51,22.51,0,0,0,8.58.25l8.73-1.06,17.74-4.76,2.26,3.55" transform="translate(0.05 -0.02)"/><polygon class="cls-1" points="179.36 25.26 174.42 29.55 168.76 31.69 166.63 34.36 157.44 42.39 146.82 53.09 136.93 60.59 131.27 66.48 127.01 70.76 120.65 82.52 123.48 91.62 122.08 96.45 145.42 96.99 152.48 92.17 159.55 85.21 165.23 83.06 164.51 91.62 166.63 99.65 175.83 101.79 185.02 100.19 192.1 94.84 193.51 102.87 198.47 106.61 202.72 111.43 209.09 111.96 218.98 107.16 226.06 100.19 231.02 96.45 238.09 96.99 244.45 101.27 252.24 99.65 257.9 96.99 257.17 92.7 252.94 92.17 249.41 95.37 241.63 92.7 236.67 84.67 231.02 78.79 223.23 79.33 222.53 83.06 223.23 88.41 221.1 93.23 214.04 100.73 207.67 102.33 203.43 102.33 200.58 85.74 208.37 73.96 208.37 69.69 213.33 61.12 213.33 55.77 204.83 56.31 205.54 60.59 200.58 65.41 200.58 71.83 197.76 75.57 193.51 78.79 191.38 85.74 185.73 90.55 179.36 95.37 175.11 95.91 174.42 88.41 174.42 80.92 177.95 71.83 180.07 67.01 182.9 67.54 182.9 62.19 187.86 53.62 182.9 52.03 170.18 63.8 168.76 67.01 163.09 69.15 162.4 73.96 151.77 79.85 147.54 83.6 146.82 86.28 136.22 88.41 137.64 81.46 139.74 72.9 141.89 70.76 148.95 62.19 151.06 56.31 156.72 53.09 160.27 48.8 167.34 43.99 171.58 37.57 177.25 38.11 178.65 35.97 187.14 30.07 179.36 25.26"/><polygon class="cls-1" points="225.08 47.51 234.98 52.28 239.95 52.74 244.19 57.03 249.13 63.21 251.26 68.44 254.1 75.57 255.51 81.28 255.51 88.89 259.75 87.46 263.29 86.51 259.75 78.42 262.59 77 263.29 73.19 257.62 63.21 254.8 58.92 249.13 57.5 249.85 52.74 242.77 49.88 236.39 46.56 228.63 44.66 225.08 47.51"/><path class="cls-1" d="M264.91,105.8l6.35-1.91,2.52-3.17,12-5.07,9.52-4.44,10.78-.64L327,85.51l10.13-1.91,12-4.43,11.42-1.9L374.54,76l8.25-5.71,8.88-.64,11.4,0.64L413.22,76l0.64,4.43L411.3,97.55l-2.51,5.06-1.92,7.61-1.27,3.17-3.16,1.9-2.52,5.08-6.35,4.44-10.11,9.51-12,4.45-6.34,3.17-11.4,1.26-16.49-.62-5.08-1.9-7-1.28-1.91-3.16L318.81,135l-5.7-4.43-4.45-3.81-2.53-7v-2.54l4.44-2.53,6.34,1.9,7,3.8,11.39,5.7,10.77,3.8,12-.63,10.78-3.8,13.36-4.37,10.15-9.51,1.27-4.45,4.45-2.53,1.25-5.7,3.8-8.88V84.91l-13.3.64L367,88.06a9.08,9.08,0,0,0-4.45,1.27c-1.89,1.26-8.87,3.16-8.87,3.16l-6.34.63L334,96.29H323.9l-7,1.9L306.76,102l-5.71,1.27-3.8,1.9-10.14,1.89-14,.64L268.05,109Z" transform="translate(0.05 -0.02)"/><polygon class="cls-1" points="162.4 169.36 165.23 172.9 168.76 175.73 173.71 175.73 178.65 173.62 181.49 167.24 185.02 160.87 186.45 153.09 185.73 146.72 179.36 144.61 173.01 145.31 168.76 148.85 166.63 151.68 164.51 158.04 163.09 164.41 162.4 169.36"/><polygon class="cls-1" points="201.29 178.56 205.54 183.51 211.9 187.04 215.44 186.34 224.64 179.27 227.46 171.49 227.46 166.53 227.46 159.46 227.46 152.39 219.69 152.39 214.73 153.81 209.79 157.33 206.24 162.29 204.13 167.94 201.29 178.56"/><path class="cls-1" d="M85.56,129.15l-8.73.64-9.51,7.63-4.79,3.82V147L57,148.24l-3.17,3.82L49.07,154l-2.37,3.82s-3.18,0-3.18,1.9-4.76,8.9-4.76,8.9l-7.13,3.18-2.39,5.1a37.68,37.68,0,0,0-4,5.71c-0.83,1.9-7.14,12.73-7.14,12.73l-2.38,5.08-1.59,16.53,4,2.56v7l7.93,3.19,6.34,7.64,6.35,3.18v2.58l11.92,13.36s3.16-1.27,4.75.65,10.31,7.62,10.31,7.62l12.73,10.77L91.16,285l10.3,3.83,3.16,1.9L107,292l4.75,5.08,4.52,6.81,0.07,4.8-3.49,5-4,5.08-2.39,7-7.93,19.74-2.39,10.17,1.54,17.76,2.86,7.77L111,389.85l8.09,0.85,7.6-2.59,6.12-.45,8.63-1.13,6.76,1.55,13.5,6.37,16.65,5.73s12.7,3.18,15.88,3.18h20.61c2.39,0,19.83-4.46,19.83-4.46L249,393.81l12.71-5.08,15.87-9.54L288.66,369,295,367.1l2.37-8.91,0.8-8.27-0.8-7L291,336.56l-8.71-8.91L276,316.84l-2.36-8.28V295.19l3.17-10.82,7.93-9.55,6.35-16.53,13.48-9.53,3.17-3.82,12.76-18.47,7.14-8.27,10.31-8.9,7.94-6.35,4.75-5.73,3.19-7-16.67-21-8-10.16-10.33-13.35-11.89-6.36-1.58,6.36,9.51,12.72,11.91,11.46,6.37,13.36-3.2,8.28-11.11,10.16-8.72,10.82-8.73,8.91L292.65,231l-9.53,12.1-7.15,14s-7.92,7.62-8.71,9.52-1.6,10.19-1.6,10.19l-5.55,9.55,0.81,14.63,2.37,14.63,7.93,9.54,7.15,12.72L281.55,348l-4.77,9.54-9.52,10.19-10.32,7.62L236.3,383l-19,4.45-22.22,4.45L180,388.73l-8.75-.67L153,381.71l-6.34-9.56,0.78-5.71-4-1.28-1.59-7-2.38-7L142.66,341l3.17-8.26,6.35-4.46,7.13-5.73,2.39-1.9L153,320l-11.11,3.81-7.14,7-2.39,6.35-4,8.91,0.8,10.81,4,9.55-0.81,12.09-5.56,3.18-2,.35-4.76.86-9.53-3.74-1.32-2.47-1.91-3.3-1.37-8.8,0.8-15.25,1.84-4.87,3.88-10.56,4.91-7.56,11.91-10.82,4.76-5.1,0.79-7.63-6.35-5.09-8.71-8.9-7.94-6.37-5.55-3.18-0.79-5.09L77.64,255.73l-11.91-9.55L50.67,234.1l-3.21-4.44-8.73-4.45-1.58-3.82-4-1.28-1.58-7.63V199.76l5.55-8.26,4.76-7.64,4.76-3.18,4-10.82L57,165.4l3.17-7.62,11.11-11.45L76,140l5.56-5.09Z" transform="translate(0.05 -0.02)"/></svg>