<svg id="Open_Layout_copy_2" data-name="Open Layout copy 2" xmlns="http://www.w3.org/2000/svg" viewBox="0 0 474.2 644.64"><defs><style>.cls-1,.cls-2{fill:#fff;}.cls-1{fill-rule:evenodd;}</style></defs><title>hostgator-white</title><path class="cls-1" d="M486.72,318.38c-1.14-5.83-7.15-11-11-15.37C468.62,294.9,461,286.51,453,278.4h0c5.17-7.94,5.75-17.79,2.29-27.25-5.54-15.17-16.53-22.39-30.18-28.95A40.71,40.71,0,0,1,410.15,211c8.6-1.13,18.5-1.64,28.07-2.62a24.74,24.74,0,0,1,2.49,9.54c0.39,5.7,1.84,13.15,8.08,14.32,3.49,0.66,6.51-1.24,8.8-3.91a32.43,32.43,0,0,0,4.35-7c3.51-7.37,5-13.35,4.92-20.14,17-11.38,20.46-42,6.39-56.36-10.23-10.46-25-9.85-37.89-4.93l-0.3-.18-0.8-.91c-4.88-5.57-12.36-9.49-21-12.24l-0.73-.44c2.07-17.27-.43-80.07-26.26-85.37-7.46-1.82-14.18,2.54-19.2,7.63l-0.8.81c-15.7-7.57-27.32-10.61-42.13-14C305.7,0.28,270.25-6.14,248.06,38.6,241,52.82,235.8,70.37,231.48,84.84l-10,5.28c-13.2,7-27,14.56-39.14,23.22-4.65,3.31-10,7.13-13.92,11.26-3.44,3.59-6.08,8.09-4.66,13.24s6.13,7.7,10.58,10A53.45,53.45,0,0,1,185,154.35a41.09,41.09,0,0,1,6.58,7.06c-11,7.75-22.31,16.38-30.9,26.53-5.37,6.34-12.55,16-7.72,24.55,4.33,7.7,15.47,8.33,23.12,10.7a20,20,0,0,1,6.82,3.3l0.27,0.24a65.32,65.32,0,0,0-16.32,13.42c-4.06,4.72-8.65,10-11.95,15.31-2.75,4.42-4.79,9.67-1.91,14.62a10.48,10.48,0,0,0,4.29,4.06c-8.32,11.2-16,22.94-23,34.14-3.08,4.94-8.17,11-8.36,17-0.2,6.36,4.77,12.24,8.29,17.17a210.43,210.43,0,0,0,31.38,34.45c-5.28,3.37-5.94,11-6.15,16.73a14.78,14.78,0,0,1-2.41,7.51c-0.48.76-1,1.46-1.46,2.15-2.13-1.12-4.23-2.24-6.3-3.35-0.79-3.17-2.94-6.17-4.47-9a155.89,155.89,0,0,0-9.23-15,94.93,94.93,0,0,0-8-10.46c-3.15-3.37-7.36-6-12.13-4-7.77,3.22-5.59,14.12-7.75,20.87a12.17,12.17,0,0,1-.86,2.07c-0.16.29-.3,0.58-0.45,0.88q-3-.51-5.93-0.89c-1.4-3.87-4.71-7.21-7.38-10.2a59.4,59.4,0,0,0-8-7.42A97.15,97.15,0,0,0,73,358.34c-4.2-2.29-9.16-3.55-13.22,0-5.81,5-2.08,13.14-1.45,19.43,0,0.46.08,0.93,0.09,1.39a43.18,43.18,0,0,1-.19,5.22c-0.07.78-.16,1.55-0.24,2.32-12.43,3.48-23.67,9.81-32.36,19.76a64.17,64.17,0,0,0-12.47,22.2,8.11,8.11,0,0,0,1.85,8.48c5.4,5.38,12.11.19,16.91-2.8,17.17-10.72,27.74-12.48,46.87-5.18,17,6.51,31.38,20,44,32.77,10.92,11.05,21,22.95,31.07,34.74,14.16,16.52,28.73,33.52,45.88,47.09,0,2.83,0,5.66-.12,8.49-0.35,10.55-1.55,21.51-5.13,31.52a42.36,42.36,0,0,0-23.83,30.75c-1.79,9.21-.63,20.33,5.2,28,0,0.1,0,.2,0,0.3l0.21,0a22.18,22.18,0,0,0,5.75,5.23,20.56,20.56,0,0,0,7,2.76,61.09,61.09,0,0,0,23.4-.45c13.06-2.6,30.29-10,40.12-19.23a22.75,22.75,0,0,0,7-11.27c1.34-5.43.28-11-.65-16.36a117.78,117.78,0,0,1-2-20.38,136,136,0,0,1,1.15-16.12c20.37,1.28,40.85-3.64,59.54-13.27a161,161,0,0,1,.29,26.07c-0.55,9.13-1.66,19.3,1.53,28.06a31.57,31.57,0,0,0,10.39,13.95c4.43,3.54,13.14,6.16,18.59,7.56a118.84,118.84,0,0,0,28.57,3.82c10.87,0.07,22.44-1.67,32-7.17l3.7-2.14,0.1-4.28c0.28-11.64-2.57-21.94-10.83-30.4-4.32-4.42-9.45-7.72-14.61-11-10.75-25.24-6.56-58.2-6.82-84.85l0-3.61a202.47,202.47,0,0,0,12.09-28.49c7.87,1.16,15.88,1.59,23.59-.69l2.17-.64,1.54-1.67c14-15.28,16-32.23,10.24-51.51l-0.69-2.34c21.15-19.81,40-42.8,52.24-67.71C484,331.16,487.93,324.6,486.72,318.38Zm-70.78-88.75c8,8.09,26.32,24.21,14.06,28.56a60,60,0,0,1-11.76,2.59c-9.75,1.32-19.47,1.91-29-1.18a85.4,85.4,0,0,1-13.31-6c-6.17-3.27-12.23-6.67-18.46-9.85-30-15.32-55.6-33.9-75.56-58.48a194.9,194.9,0,0,1,47.85,14.59c3.85,2,7.88,4,12,6a234.53,234.53,0,0,1,35.68,23.91c-0.31,4.81.38,10.19,5,12.2,7.57,3.29,15-8,18.28-13.87a48.39,48.39,0,0,0,3.93-9.08C408.43,221.27,412,224.71,415.94,229.63Zm-33.08-13c0.48-.14,1-0.25,1.46-0.39A54.12,54.12,0,0,0,390.7,214c2.37-1,5.36-.3,9,0,0,0.38-.11.78-0.19,1.18v0q-0.12.6-.29,1.24h0c-3.1,11.84-17.94,30.18-15.51,11.51A27.27,27.27,0,0,0,382.86,216.62Zm-6.44-1L377,218a21.83,21.83,0,0,1,.75,9.15c-0.08.65-.16,1.32-0.21,2A107.88,107.88,0,0,0,366,214.33,62.39,62.39,0,0,0,376.42,215.66Zm79.78,2.19c-3.71,7.78-8.42,11.54-9.26-.79a32.07,32.07,0,0,0-1.94-9.17,81.73,81.73,0,0,0,8.3-1.72c2.39-.51,4.69-1.09,6.87-1.78A37.16,37.16,0,0,1,456.2,217.85Zm-27.78-74c-10.77,6.62-42.74-16.67-64.13-3.63-11.81,7.19-14.75,19.81-11.43,30.33-15-.28-27.91-6.4-40.84-12.41a90.39,90.39,0,0,0,45,20.49l0.21,0.25q0.61,0.79,1.28,1.53l0.2,0.23a24,24,0,0,0,19.74,7.68c-23.9-5.06-23.65-43.74,5.27-42.95,17.91,0.49,39.8,16,60.25,10.19l-17.55-2.34c15.48-10.51,32.3-12.25,41.33-3,9.48,9.68,8.39,31.17-1.7,41.64-0.48.49-1,1-1.49,1.4l-0.33.28-0.67.52-0.53.38-0.59.41q-0.55.36-1.12,0.67l-0.45.23c-0.3.16-.61,0.31-0.92,0.45l-0.43.19c-0.45.19-.91,0.37-1.38,0.52s-1.15.36-1.75,0.53l-0.47.13-1.7.44-0.16,0-1.91.43-0.56.12-1.66.33-0.38.07-2,.34-0.69.11-1.51.23-0.64.09-1.92.26-0.88.11-1.25.15-0.92.11-1.78.19-1.13.11-0.91.08-2.8.23h0c-4.13.32-8.09,0.51-11.51,0.61,5.94-4.28,21.7-11.1,33.13-10.67-9.83-3.91-19-2.37-27.51,1-43,17-46.74,25.57-97-.62-27.07-14.1-53.44-35.93-69.14-59.17,3.41-2.24,8-5.07,12.87-1.17-7.18-20.49-48.39-.57-33.05,27.49,1-5.79.92-12.74,8.19-12.28A196.08,196.08,0,0,0,269.68,182h0c0.64,0.88,1.29,1.75,1.95,2.62l0.5,0.66q1.11,1.46,2.23,2.88h0c22.89,29,51.56,48.17,79.64,62.51,27.69,14.14,34.12,22,65.28,17.82a68.46,68.46,0,0,0,13.32-3c17-6,7.73-20.2-1-31.21,22.4,14.61,27.68,45.49-5.82,51.64-24.16,4.44-21.08,12.47-43.94,3.74a283,283,0,0,1-33.55-15.77q-2-1.09-4-2.21l-0.07,0-3.87-2.19-0.26-.15-3.72-2.17L336,266.9q-2-1.18-4-2.4h0a442,442,0,0,1-63.9-46.83c-1.57-1.4-3.4-3-5.39-4.87l-1.5-1.37-0.22-.2-1.55-1.44-0.16-.15-1.67-1.57-0.09-.08-1.78-1.7c-16.42-15.76-38.38-40-42.1-62.76a39,39,0,0,1-.5-6.1h0a31.83,31.83,0,0,1,5.52-18.5h0q0.58-.84,1.21-1.64v0q0.63-.79,1.31-1.54l0,0q0.68-.75,1.41-1.45l0,0q0.73-.7,1.5-1.36h0q0.78-.66,1.6-1.26h0q0.82-.61,1.68-1.17h0q0.86-.56,1.77-1.07h0a37.86,37.86,0,0,1,28.65-3.09c0.54,0.15,1.08.31,1.62,0.48l0,0.06h0.22c15.08,4.89,28.21,18.69,36.83,36.8-4.71-15.13-10.59-28.21-19.69-36.57a261.28,261.28,0,0,1,26.36,2c9.09,1.21,14.29,2.32,16.95,2.36a54.71,54.71,0,0,0-14.25,9.72c34.95-14.21,64.5-11.34,90.08,4.09a89.24,89.24,0,0,0-21.48-1.43c16,2.53,20.25,3.53,34.11,8C417.58,134.68,424.37,138.83,428.42,143.9ZM387.2,452q-0.6,2-1.24,3.93v0q-0.64,2-1.31,3.89a198.37,198.37,0,0,1-8.8,21.43L375,482.95l-0.8,1.61-0.27.53c-27.25,6.84-65.73-4.59-85.45-23.82a114.33,114.33,0,0,0,19.34-44.13c24.18-11.08,62.74-9,86.46,5.52A263.47,263.47,0,0,1,387.2,452h0Zm-56.39,84.38a47.47,47.47,0,0,1-12.17,2.47c-15.45,1-31.32-4.81-44-13.29-2.33-1.56-4.6-3.25-6.81-5.07,3.9-14.76,5.38-28,2.37-39.76a88.86,88.86,0,0,0,6.77-6.08c2.1-2.09,4.07-4.24,6-6.43,20.25,19.24,56.41,30.85,85.37,26.91q-1,1.59-2,3.16l-0.06.09q-0.87,1.37-1.77,2.71h0A138,138,0,0,1,330.82,536.38ZM276.31,260.6c-7.3-14.45-11.4-26.58-12.9-36.76A422.9,422.9,0,0,0,305,256.23c4.47,3.08,9.08,6.14,13.79,9.16-12.65,1.43-25.14,4.59-35.35,10Q279.95,267.79,276.31,260.6ZM287,283.52c12.41-6.79,29.07-9.73,44.66-10.15a313.62,313.62,0,0,0,47.46,23.51c7.05,2.7,12.13,4,16.27,4.32h0q0.94,5.13,1.67,10.33c0.27,1.91.5,3.84,0.72,5.78,0.63,5.6,1.08,11.28,1.4,16.92a126.09,126.09,0,0,0-29.22-5.55c-20.34-1.53-46,1.2-64.52,10.89A324.87,324.87,0,0,0,287,283.52h0ZM397.91,397.26c-0.55,5.33-1.22,10.7-2,16.1-24.57-13.48-60.53-15.83-86.26-6.48,2.52-18.88,1.33-38.66-2.32-58.26l0.53-.3c17.06-9.66,42.23-12.26,61.48-10.81a114.6,114.6,0,0,1,30.3,6.22c0,0.69,0,1.38.07,2.06q0.11,3.7.16,7.4s0,0.08,0,.11q0,3.73,0,7.46C399.77,373,399.15,385.16,397.91,397.26Zm8.94-61.94c-0.23-4.44-.53-8.88-0.94-13.31,2.79,1.55,5.44,3,7.86,4.27-0.73.88-1.43,1.76-2.11,2.61C410,331,408.43,333.13,406.85,335.31Zm-9.42-34h0Zm4-.27-0.25,0Zm-131-200.24c7.41-14.14,10.67-31,13.3-46.38A45.72,45.72,0,0,1,291,60.89c9.84,10.42,17.92,29.4,23.32,43.61-3.45-.54-6.88-1.07-10.35-1.54A288.39,288.39,0,0,0,270.46,100.79ZM372.53,101c1.43,3.14,4,5.25,7,5.25,4.51,0,8.17-4.84,8.17-10.82,0-5.18-2.75-9.5-6.42-10.56a101.11,101.11,0,0,1,8.33-9.49c-0.83,11.17,2.14,23.8,3.49,34.79a3.29,3.29,0,0,1-1.95.93,127.18,127.18,0,0,0-16.41-3.68l-0.19-.06-0.07,0-2.24-.33-1.36-.23A56.46,56.46,0,0,1,372.53,101Zm-102-80.51c23.58-15.5,50.1,19.46,65.16,54.4-1.6-9.77-3.47-21.43-9.07-30.42C349.37,48.75,357,50.6,372.14,64a62.68,62.68,0,0,0-.93-9c20.7-20.8,36.75,23,32.35,60.25-1.69-.58-3.36-1.12-5-1.64l-0.31-.12a6.58,6.58,0,0,0,1-3.12c-1.17-10.16-4.82-26.4-3.3-37.1,2.64-3.86-2-11.41-8.23-4.65C376.08,79,369,90.15,364.86,105.94c-16.83-2-30.91-.45-42.44,4.4,0.22-.91-0.33-2.49-1.27-5-6-16-14.87-37.12-25.71-48.61-6.5-6.88-13.32-12.23-23.55-12-2.5,3.09,4.26,4.78,6.13,7.17-2.93,17.21-6.28,34.09-13.78,47.58-7.81-2.7-17.33-3-29.14,0C241.9,78.41,251.66,32.88,270.55,20.47ZM190,148.45c-14.76-12.51-32.25-8.12-3.16-28.81,9.32-6.62,22.36-14.27,38.28-22.69l-2.38,7.32a39.89,39.89,0,0,0-5.87,4.78,38.79,38.79,0,0,0-11.43,26.46,144.7,144.7,0,0,0-8.32,20.4A48.76,48.76,0,0,0,190,148.45ZM166.6,192.94c7-8.27,16.52-15.9,26.84-23.34a177.22,177.22,0,0,0-3,53.63C179.28,208.19,143.85,219.79,166.6,192.94Zm6.14,52.24a60.62,60.62,0,0,1,18.51-14.07c0.22,1.79.48,3.58,0.75,5.35-3.29,2.62-6.4,5.39-9.26,8.16a223.49,223.49,0,0,0-20.6,23.17C156.85,266.09,158.51,261.72,172.74,245.19Zm24.15,157.6q-0.73-1.43-1.5-2.84l1.71,1.17Zm-33.28,2.4a22.45,22.45,0,0,0,3.59-11.35c0.5-14.16,4.24-15.31,16.33,1.64a97.83,97.83,0,0,1,8.53,15c0.92,2,1.77,3.62,2.49,5q-1.67,0-3.34-.13c-9.94-.65-19.51-4.29-28.65-8.7C162.9,406.28,163.25,405.77,163.61,405.18Zm-34.37-24.94a147.29,147.29,0,0,1,8.7,14.16,144,144,0,0,0-23.7-7.64C119.67,374.52,112.45,356.1,129.24,380.24Zm-48.86-7.43a51.92,51.92,0,0,1,6.95,6.45c1.37,1.52,2.64,2.91,3.66,4.17a108.12,108.12,0,0,0-25,1.41,49.76,49.76,0,0,0,.21-5.93C65.9,367.5,57.13,354.9,80.38,372.81ZM81.56,422l-0.4-.15c23,0.68,43.63,9.6,63.4,24.88a34.75,34.75,0,0,0-5.72,21c-3.46-3.81-7-7.56-10.58-11.22C113.12,441.2,98.77,428.58,81.56,422ZM153,483.8c-2.45-5-4.36-9.26-5-15.06a26.13,26.13,0,0,1,3.46-16.41q3.63,3.1,7.24,6.47c4.68,4.38,9.23,8.78,13.79,13l-0.45.53a34.4,34.4,0,0,0-8,24.42l-4.33-5Zm25.31,29c-4.18-7.39-6.3-13.61-5-22.53a24,24,0,0,1,5.46-12.23l0.34-.4c6.85,5.85,13.88,11,21.55,14.57a59.34,59.34,0,0,0-.92,6.21c-0.81,8.62-.58,17.5-0.34,26.15,0.08,3,.18,6.08.25,9.12A253,253,0,0,1,178.27,512.81Zm68.89,112.68c-5.82,5.47-18.61,12.46-32.83,16-2.66-12.9-.14-25,10.1-36-14,8-18.33,21.8-19.22,37.68a58.27,58.27,0,0,1-14.9.07,13.85,13.85,0,0,1-5.07-2.5l0.13,0c-3.09-13.38-.73-25.93,9.84-37.24-9.65,5.52-14.7,13.8-17.21,23.62a34.63,34.63,0,0,1,22.5-37.58c5.66-13.74,7.17-29.25,7.35-44.49,0-.08,0-0.17,0-0.25q0-2.23,0-4.46h0c0-4.75-.14-9.45-0.27-14-0.22-7.54-.64-19.53.31-31.16h0q0.16-2,.38-4h0c0.15-1.32.32-2.62,0.51-3.9,1.06-7.12,2.81-13.65,5.66-18.37a35,35,0,0,1,4.68-6.12,46,46,0,0,0-16.37,22C189,477.94,177.29,465.6,164,453.16c-33.51-31.34-68.66-45.87-111.58-36.05,1.46,0,2.9,0,4.32,0-9.43.46-18.17,4.08-28.78,10.71C23,430.92,19.79,433,20.44,431a56.48,56.48,0,0,1,11-19.59C38.81,403,48.35,397.48,59,394.32h0c0.6-.18,1.21-0.34,1.82-0.5l1.43-.38,1.71-.41,1.76-.37,1.48-.29a101.76,101.76,0,0,1,26-1.15l1.73,0.15L96,391.48q2.11,0.22,4.22.5t4.26,0.64h0q4.06,0.68,8.05,1.6a135.34,135.34,0,0,1,26.5,9q1.39,0.65,2.74,1.32c0.92,0.46,1.83.92,2.72,1.4,2.92,1.56,5.85,3.13,8.8,4.66l1.93,1,1,0.5,1.59,0.79,1,0.51,1.61,0.77,1,0.47,1.91,0.87,0.69,0.31q1.29,0.57,2.58,1.11l0.74,0.3,1.91,0.76,1,0.36,1.77,0.64,1,0.34L175,420l0.78,0.25q1.35,0.41,2.72.77l0.5,0.12q1.12,0.29,2.25.54l0.93,0.2,1.88,0.37,1,0.17q1,0.16,2,.28l0.9,0.12c0.95,0.11,1.9.2,2.85,0.26q1.68,0.11,3.36.14h0.12c0.93,0,1.87,0,2.79,0,2,11.44,7.73,21.35,18.37,29.75l1.78,1.41,2.25,0.29c11,1.44,21.82-2.36,32-6l2.46-.87,1.51-2.14c14.71-20.91,20-41.43,1-61.92-4.61-5-9.09-10.05-13.52-15.18a81,81,0,0,0-4.31-24.38c-3.63-10.9-9.05-21.15-14.24-31.51,15.33-8.82,35.79-24.07,34.53-52.82-5.2,17.2-21.81,33.6-38.51,44.69h0c-0.59.39-1.18,0.76-1.77,1.14s-1.43.91-2.14,1.35c-0.86.53-1.72,1.06-2.58,1.55h0a99.54,99.54,0,0,1-15.17,7.32c-8.82-5.06-22.69-6.46-30.64-1.25,37.87,1.13,44.83,30.88,67.13,58.76h0a119,119,0,0,0,15.2,15.92c18,15.51,10.86,33.82-1.65,51.6-6.31,2.24-18.2,6.89-28.24,5.59-9-7.06-13.54-15.12-15.27-24.1q-0.35-1.8-.54-3.66l0-.18q-0.09-.89-0.15-1.8v0q-0.06-1-.09-1.93h0a67.37,67.37,0,0,1,.55-10.18l13.34,8.38c-0.17.74-.32,1.45-0.46,2.14l-0.15.74q-0.14.77-.26,1.51t-0.18,1.25h0c-1.38,10.47,1.76,15.95,9.43,20.11-6.33-6.38-5.67-13.53-1.24-24.05,4.95,2.05,10.14,2.42,15.52,2.33q-6.27-3.1-12.38-6.43-3.48-1.89-6.91-3.85c-33.23-19.06-62.09-43-80.73-69.08-9.74-13.65-8.4-11,.36-25,8.47-13.5,16.77-25.66,24.88-36.24h0q2.84-3.72,5.66-7.17a187.43,187.43,0,0,1,21.84-23.09c0.76-.66,1.52-1.3,2.28-1.92l0.36-.3,0.31-.25c0.85-.69,1.7-1.37,2.55-2l0.91-.7c6-4.7,17.72-14.74,29.19-18.92-10.78-.71-21,3.39-30.17,9.35v-0.07q-0.08-.64-0.16-1.29-0.11-.92-0.22-1.84c0-.43-0.1-0.86-0.15-1.3q-0.1-.94-0.19-1.88c0-.42-0.08-0.83-0.12-1.25-0.06-.69-0.12-1.39-0.18-2.09,0-.34-0.06-0.68-0.09-1q-0.12-1.51-.21-3c0-.38,0-0.76-0.06-1.14,0-.65-0.07-1.3-0.1-1.95,0-.46,0-0.92-0.06-1.38s0-1.13-.06-1.7,0-1,0-1.47,0-1.07,0-1.61,0-1,0-1.51,0-1.05,0-1.58,0-1,0-1.52,0-1.05,0-1.58,0-1,0-1.51,0-1.14.06-1.71q0.05-1.33.13-2.65c0-.53.06-1.05,0.09-1.58s0.08-1.07.12-1.61,0.07-1,.11-1.43,0.1-1.09.15-1.64,0.09-.93.14-1.4,0.12-1.1.18-1.65,0.11-.92.16-1.37,0.14-1.11.21-1.66,0.12-.9.19-1.35,0.16-1.12.24-1.68,0.13-.84.2-1.26q0.51-3.14,1.15-6.27c0.08-.41.17-0.82,0.25-1.23,0.12-.57.25-1.13,0.38-1.69s0.19-.85.29-1.28,0.27-1.12.41-1.67l0.33-1.29q0.21-.83.44-1.66l0.36-1.28c0.16-.55.31-1.11,0.47-1.66s0.25-.85.38-1.27,0.34-1.11.51-1.67c0.12-.38.25-0.76,0.38-1.15q0.52-1.6,1.09-3.19c0.15-.42.3-0.85,0.45-1.27s0.39-1,.59-1.56l0.39-1c6.55,24.23,28.79,48,47.75,65.69,0.28,16.63,7.47,34.19,14.38,47.88a347.63,347.63,0,0,1,26,67.12c8.08,30.51,11.61,64.71,2,95.27a103.43,103.43,0,0,1-25.85,42.7c-1.32,1.31-2.69,2.56-4.08,3.78a44.94,44.94,0,0,0-7.13-10.79,29.76,29.76,0,0,1,5.15,13q0.12,0.69.21,1.38c0,0.25.07,0.5,0.1,0.75,0.06,0.47.11,0.94,0.15,1.42,0,0.25,0,.5.07,0.75,0,0.5.07,1,.1,1.5,0,0.24,0,.47,0,0.71,0,0.59,0,1.18,0,1.77,0.14,10.27-2.09,21.67-4.76,31.85q-0.23.89-.47,1.76l-0.21.77-0.43,1.55-0.21.75-0.47,1.63-0.16.56c-0.21.72-.42,1.43-0.63,2.12h0l-0.6,2a226,226,0,0,0-7,32.22h0v0q-0.29,1.93-.53,3.8h0q-0.25,1.88-.46,3.69h0a151.24,151.24,0,0,0-1.19,16.9C249.09,608.14,257.58,615.69,247.16,625.49Zm-12.89-267c-9.7-12-14-26.27-25.54-36.82,1.37-1.39,4.65-3.1,8.92-5.38,5,9.94,10.17,19.81,13.65,30.26A78.38,78.38,0,0,1,234.27,358.47Zm24.55,200.88c0.81-5.42,1.79-10.83,3-16.17,1-4.55,2.13-9.07,3.47-13.52,1.49,1.13,3,2.22,4.52,3.25,12.39,8.31,27.33,14.15,42.4,14.83C295.33,556.1,277,560.41,258.82,559.35ZM381,583.27c12.58,8.09,24.37,14.5,23.85,36-1,.56-2,1.06-3,1.53-2.89-11-8.89-20.37-22.36-26,11.72,8.8,15.39,18.57,13.71,29a64.73,64.73,0,0,1-10.36,1.5c-2.83-11.22-8.79-20.87-22.5-26.64,10.9,8.18,14.83,17.2,14,26.79-18.2-.57-35.81-6.3-40-9.66-17.3-13.82-5.22-30.59-9.73-66.15a144.23,144.23,0,0,0,31.05-25,149,149,0,0,0,16.91-21.79C372,528.25,369.75,559.06,381,583.27ZM413.53,452.6c-5.86,1.74-12.75,1.43-18.73.65a276,276,0,0,0,7.65-32.92l0.37-.17c6.08,9.64,8.52,18.52,3.33,25.79,8-6.2,9.68-13.16,4-26.66L422,408.94C426.65,424.76,425.93,439,413.53,452.6ZM474,333c-14.49,29.49-40,58.39-70.82,82.85,0.93-5.95,1.69-11.88,2.3-17.77a394.47,394.47,0,0,0,1.88-49c12.41-18.77,24.66-33.46,36.24-34.42A20.23,20.23,0,0,0,419.45,320q-7.69-4.08-14.67-8.14c-0.06-.47-0.12-0.93-0.18-1.4-0.45-3.27-1-6.51-1.56-9.74,6.43-1.38,12-5,24.19-7.21,8.7-1.6,15.41-4.77,20.27-8.93,7.15,7.22,14.53,15.19,22.1,23.81C480.46,320.79,481.37,318,474,333Z" transform="translate(-12.75 -7.01)"/><path class="cls-1" d="M393.61,181.34c-5.39-1.28-7.37-4.89-6.14-8.19,8.78-3.92,3.65-12.89-3-10.75C375.9,165.5,376.58,184.86,393.61,181.34Z" transform="translate(-12.75 -7.01)"/><path class="cls-1" d="M459.65,159.65c-5.49-1.77-9.71,5.63-2.47,8.87,1,2.72-.62,5.71-5.07,6.76C466.16,178.17,466.73,162.2,459.65,159.65Z" transform="translate(-12.75 -7.01)"/><ellipse class="cls-2" cx="277.46" cy="77.85" rx="10.38" ry="14.29"/></svg>