<svg xmlns="http://www.w3.org/2000/svg" width="248" height="63" viewBox="0 0 248 63"><title>  logo-icon-bluehost-india</title><desc>  Created with Sketch.</desc><g fill="none"><g transform="translate(0 -1)" fill="#FFF"><g transform="translate(0 2)"><polygon points="0 11 11 11 11 0 0 0"/><polygon points="15 11 26 11 26 0 15 0"/><polygon points="30 11 41 11 41 0 30 0"/><polygon points="0 26 11 26 11 15 0 15"/><polygon points="15 26 26 26 26 15 15 15"/><polygon points="30 26 41 26 41 15 30 15"/><polygon points="0 41 11 41 11 30 0 30"/><polygon points="15 41 26 41 26 30 15 30"/><polygon points="30 41 41 41 41 30 30 30"/></g><g transform="translate(62 0)"><path d="M3 38C5.4 39.2 7.7 39.7 9.7 39.7 15 39.7 19.9 36.6 19.9 28.9 19.8 22.1 16.1 18.2 11.3 18.2 8 18.2 5 20 3 22.2L3 38 3 38ZM3 18.8C5.2 16.9 8.1 15.6 11.5 15.6 17.2 15.6 22.7 19.5 22.7 28.9 22.7 38.6 16.5 42.3 9.9 42.3 6.2 42.3 2.7 41.1 0.2 39.6L0.2 1.5 3 1.5 3 18.8 3 18.8Z"/><polygon points="27.7 41.8 30.4 41.8 30.4 1.5 27.7 1.5"/><path d="M39.9 31.8C39.9 37.9 42.9 39.6 45.9 39.6 49.3 39.6 52.3 37.4 54.7 33.9L54.7 16 57.6 16 57.6 41.8 54.7 41.8 54.7 36.8C52.5 40.1 48.9 42.2 45 42.2 40.9 42.2 37.1 39.9 37.1 32L37.1 16 39.9 16 39.9 31.8 53.5 0.7"/><path d="M83.6 27.2C83.8 22.7 80.6 18.4 75.3 18.2 70.2 18.1 66.2 21.9 65.8 27.2L83.6 27.2 83.6 27.2ZM84.8 40.1C82.6 41.3 79.4 42.5 75.7 42.3 67.1 42 62.6 35.2 62.9 28 63.2 19.8 69.2 15.4 75.6 15.6 82.5 15.8 87.2 21.4 86.3 29.5L65.7 29.5C65.7 34.3 69.1 39.4 75.8 39.7 78.8 39.8 81.6 38.9 83.8 37.7L84.8 40.1 84.8 40.1Z"/><path d="M95.6 21C97.7 17.8 101.1 15.6 105 15.6 110.1 15.6 113.1 19.5 113.1 25.3L113.1 41.8 110.3 41.8 110.3 25.9C110.3 20.3 107.4 18.3 104.4 18.3 100.6 18.2 97.3 21.2 95.6 24.1L95.6 41.8 92.7 41.8 92.7 1.5 95.6 1.5 95.6 21"/><path d="M120.6 28.9C120.6 34.6 123.9 39.6 130.1 39.6 136 39.6 139.6 34.6 139.6 28.9 139.6 23.1 136.1 18.3 130.1 18.3 124 18.3 120.6 23.1 120.6 28.9L120.6 28.9ZM142.4 28.9C142.4 37.4 136.7 42.2 130.1 42.2 122.7 42.2 117.8 36.3 117.8 28.9 117.8 21 123.2 15.6 130.1 15.6 136.7 15.6 142.4 20.5 142.4 28.9L142.4 28.9Z"/><path d="M147.9 37.4C150 38.8 152.4 39.6 154.7 39.6 157.4 39.6 160.7 38.4 160.7 35.7 160.7 33.4 158.3 31.6 154.3 30 150 28.3 146.2 26.7 146.2 22.5 146.2 18.4 150 15.6 155 15.6 157.7 15.6 160.1 16.4 162.2 17.5L161.1 19.8C159.5 18.9 157.4 18.3 155.1 18.3 150.9 18.3 149 20.4 149 22.5 149 25.3 152.1 26.4 156.1 28 162.3 30.4 163.6 33.2 163.6 35.6 163.6 39.6 159.8 42.2 154.8 42.2 152 42.2 149.2 41.4 146.7 39.8L147.9 37.4"/><path d="M182.2 16L182.2 18.4 173.8 18.4 173.8 32.6C173.8 36.7 175.5 39.4 179.3 39.6 180.9 39.6 182.6 39.2 184.1 38.6L184.9 41.1C183.2 41.7 181.2 42.3 179.2 42.2 174.6 42.2 170.9 39.4 170.9 32.8L170.9 18.4 166.3 18.4 166.3 16 170.9 16 170.9 7.3 173.8 7.3 173.8 16 182.2 16"/></g><path d="M207.5 63L205.5 63 205.5 53.3 207.5 53.3 207.5 63ZM205.4 50.7C205.4 50.3 205.5 50.1 205.7 49.9 205.9 49.7 206.1 49.6 206.5 49.6 206.9 49.6 207.2 49.7 207.4 49.9 207.6 50.1 207.7 50.3 207.7 50.7 207.7 51.1 207.6 51.3 207.4 51.5 207.2 51.7 206.9 51.8 206.5 51.8 206.1 51.8 205.9 51.7 205.7 51.5 205.5 51.3 205.4 51.1 205.4 50.7ZM219.4 63L217.4 63 217.4 57C217.4 56.3 217.2 55.7 216.9 55.3 216.6 55 216.1 54.8 215.5 54.8 214.6 54.8 214 55 213.6 55.6 213.2 56.1 213 56.9 213 58.2L213 63 210.9 63 210.9 53.3 212.5 53.3 212.8 54.6 212.9 54.6C213.2 54.1 213.6 53.7 214.2 53.5 214.7 53.2 215.3 53.1 215.9 53.1 218.3 53.1 219.4 54.3 219.4 56.7L219.4 63ZM226 63.2C224.8 63.2 223.8 62.7 223.2 61.9 222.5 61 222.1 59.7 222.1 58.2 222.1 56.6 222.5 55.3 223.2 54.4 223.9 53.5 224.8 53.1 226 53.1 227.3 53.1 228.3 53.6 229 54.5L229.1 54.5C229 53.8 228.9 53.3 228.9 52.9L228.9 49.3 231 49.3 231 63 229.4 63 229 61.7 228.9 61.7C228.2 62.7 227.3 63.2 226 63.2ZM226.6 61.5C227.4 61.5 228 61.3 228.4 60.8 228.8 60.3 229 59.5 229 58.5L229 58.2C229 57 228.8 56.1 228.4 55.6 228 55 227.4 54.8 226.5 54.8 225.8 54.8 225.2 55.1 224.9 55.7 224.5 56.3 224.3 57.1 224.3 58.2 224.3 59.3 224.5 60.1 224.8 60.7 225.2 61.2 225.8 61.5 226.6 61.5ZM236.4 63L234.3 63 234.3 53.3 236.4 53.3 236.4 63ZM234.2 50.7C234.2 50.3 234.3 50.1 234.5 49.9 234.7 49.7 235 49.6 235.4 49.6 235.7 49.6 236 49.7 236.2 49.9 236.4 50.1 236.5 50.3 236.5 50.7 236.5 51.1 236.4 51.3 236.2 51.5 236 51.7 235.7 51.8 235.4 51.8 235 51.8 234.7 51.7 234.5 51.5 234.3 51.3 234.2 51.1 234.2 50.7ZM245.8 63L245.4 61.6 245.4 61.6C244.9 62.2 244.4 62.6 243.9 62.9 243.5 63.1 242.9 63.2 242.1 63.2 241.2 63.2 240.4 62.9 239.9 62.4 239.3 61.9 239.1 61.2 239.1 60.2 239.1 59.2 239.4 58.5 240.2 57.9 240.9 57.4 242.1 57.2 243.6 57.1L245.3 57.1 245.3 56.5C245.3 55.9 245.1 55.5 244.8 55.1 244.5 54.8 244.1 54.7 243.5 54.7 243 54.7 242.5 54.8 242 54.9 241.6 55.1 241.2 55.2 240.7 55.4L240.1 53.9C240.6 53.7 241.2 53.5 241.8 53.3 242.4 53.2 243 53.1 243.6 53.1 244.8 53.1 245.7 53.4 246.4 53.9 247 54.5 247.3 55.3 247.3 56.5L247.3 63 245.8 63ZM242.8 61.6C243.5 61.6 244.1 61.4 244.6 61 245 60.5 245.2 60 245.2 59.2L245.2 58.4 244 58.4C243 58.4 242.3 58.6 241.9 58.9 241.4 59.2 241.2 59.6 241.2 60.2 241.2 60.7 241.3 61 241.6 61.2 241.9 61.5 242.2 61.6 242.8 61.6Z"/></g></g></svg>