<svg xmlns="http://www.w3.org/2000/svg" viewBox="0 0 523.26 103"><defs><style>.cls-1{fill:#4580c2;}.cls-1,.cls-10,.cls-2,.cls-3,.cls-4,.cls-5,.cls-7,.cls-8,.cls-9{fill-rule:evenodd;}.cls-2{fill:#2e578c;}.cls-3{fill:#fbce3b;}.cls-4{fill:#eca93e;}.cls-5{fill:#edb248;}.cls-6{fill:#f1f1f2;}.cls-7{fill:#f68b51;}.cls-8{fill:#f26a23;}.cls-9{fill:#c56428;}.cls-10{fill:#ebeef2;}.cls-11{fill:#fff;}</style></defs><title>Hg-Logo</title><g id="HG-Logo-Update"><g id="Default"><g id="Default-Dark"><g id="LightBlue_Snappy" data-name="LightBlue Snappy"><g id="Back_Leg" data-name="Back Leg"><path class="cls-1" d="M65.33,72.4C62.89,74.76,60.46,78,58,80.34c1.17,6.15-1.12,8.85,1.64,11.06,1,.79,7,2.48,10.45.52.07-3.19-1.67-4.14-3.53-5.33-1.89-4-1.21-10.2-1.25-14.19"/><path class="cls-2" d="M66.73,92.82a5.56,5.56,0,0,0-3.44-4,4.48,4.48,0,0,1,2.14,4C65.87,92.84,66.3,92.84,66.73,92.82Z"/><path class="cls-2" d="M69.64,92.16a5.52,5.52,0,0,0-3.42-4C68,89.53,68.57,91,68.32,92.6A7.3,7.3,0,0,0,69.64,92.16Z"/></g><g id="Back_Arm" data-name="Back Arm"><path class="cls-1" d="M62.48,40.56c-1.26,1.83-1.82,5.67,8.2,11.3,0,0-4.21,7.27-5.54,8.6S63,65.33,64.3,67.11a16.18,16.18,0,0,0,2.3,2.57s3.32.62,4.74-.18a6.4,6.4,0,0,0,1-7.11s8.45-8.84,7.91-11.5S66.47,34.76,62.48,40.56Z"/><path class="cls-2" d="M72.29,62.39s-3.42,2.82-4.28,3.3a9.72,9.72,0,0,0,2-.86s1.52,1.86.41,3.43c0,0,2-1.17.67-3.86a16.41,16.41,0,0,0,1.26-1.83Z"/></g><g id="Body"><g id="Tail_Spines" data-name="Tail Spines"><path class="cls-1" d="M37.07,60.75a3.64,3.64,0,0,1-.58,1.84c-.58.91-.91.81.53,1.59a10.69,10.69,0,0,0,3.42,1.06c2,.33,1.55.11.66-1.79A16.19,16.19,0,0,0,39.71,61c-2-2.75-2.56-2.56-2.64-.27"/><path class="cls-1" d="M29.89,59.8c-.74,1.37.39,1.59,1.84,2.1a7.3,7.3,0,0,0,1.68.37c1.63.18,1.21-.06.49-1.38a23.68,23.68,0,0,0-1.44-2.36c-2.87-4.12-1.5-.73-2.57,1.27"/><path class="cls-1" d="M23.69,59.19a6.07,6.07,0,0,1,0,.94c-.1,1.14-.23.95,1.18,1.08a8.44,8.44,0,0,0,1.89,0c1.8-.27,1.14-.9.2-1.95a7.75,7.75,0,0,0-1.06-1c-3.56-2.74-2.22-.81-2.17.94"/></g><path class="cls-1" d="M47.54,19s-10.21,5.26-10.12,6.93,2.88,1.44,4,3.68c0,0-6.25,4.32-5.85,6.3S40,37.17,41,38.74c0,0-1,3.94-.09,5.38s.77.2,2,2C43,46.16,42.28,31.46,47.54,19Z"/><path class="cls-1" d="M45.4,23.78C49,27.2,53.54,29.35,57.68,32a27.06,27.06,0,0,1,7.41,6.53c2.48,3.32,1,7.23,1.62,11.3.19,1.38.28,2.78.34,4.18a54,54,0,0,1-.22,7.63c-.63,6.06-.94,11-5.22,15.54C56.27,82.85,50.65,83.86,44,79c-2.58-1.9-4.56-2.77-6.63-5.19-1.37-1.6-3.07-2.62-4.54-4.11a21.43,21.43,0,0,0-6.56-4.73c-2.58-1-4.36.36-5.63.94-.65.3-1.55.88-2.28.3a.77.77,0,0,1-.25-.91,6.71,6.71,0,0,1,1.69-2.39c3.93-3.6,10.28-3.68,15-1.15,1.79,1,3.74,2.05,5.81,2.18a5.54,5.54,0,0,0,4.08-1.16,5.36,5.36,0,0,0,1.67-3.12,9.49,9.49,0,0,0-.35-5c-.77-2.32-2.15-4.42-3.05-6.71-3-7.79-4-16.67.87-23.95l.68-1Z"/><path class="cls-3" d="M27.09,65.28C30.53,67,34.19,70.85,37.7,75c4.59,5.45,16,13.48,25.51.86,8.91-11.88,4.72-28.53,4.2-30.42l-.06-.2c-.3-.38-8.24-10.52-15.52-12-1.94,1.68-2.32,4.65.26,9.77,4.35,8.61,7.83,21.16.1,28.87a10.52,10.52,0,0,1-4.12,2.6c-5.49,1.81-8.4-1.52-11.84-4.74A16.57,16.57,0,0,0,27.09,65.28Z"/><path class="cls-4" d="M64.28,74.34a18.27,18.27,0,0,1-9.18-3.75,12.68,12.68,0,0,0,8.11,5.29C63.59,75.38,64,74.86,64.28,74.34Z"/><path class="cls-4" d="M48.82,75.11a21.2,21.2,0,0,0,5.54,7.19,11.94,11.94,0,0,0,2.18-.74A17.66,17.66,0,0,1,48.82,75.11Z"/><path class="cls-4" d="M37.14,74.36l.56.66.26.31a3.88,3.88,0,0,1,.25-2.42A12.93,12.93,0,0,0,37.14,74.36Z"/><path class="cls-4" d="M41,78.21c.4.32.81.64,1.24,1-.29-1.38-.42-2.82.05-3.62A13.2,13.2,0,0,0,41,78.21Z"/><path class="cls-5" d="M33.46,70.37l.89.91a7.57,7.57,0,0,1,.2-1.91A9.68,9.68,0,0,0,33.46,70.37Z"/><path class="cls-4" d="M57.56,64a18.47,18.47,0,0,1,10.67,0c.09-.5.17-1,.24-1.48C61.48,60.86,57.56,64,57.56,64Z"/><path class="cls-4" d="M68.68,53.06c-.05-.6-.11-1.17-.17-1.72h0c-7.41-.18-11.23,3.42-11.23,3.42A18.13,18.13,0,0,1,68.68,53.06Z"/><path class="cls-4" d="M65.76,43.36c-.29-.33-.61-.69-1-1.07-7.87,0-10,3.66-10,3.66A17.4,17.4,0,0,1,65.76,43.36Z"/><path class="cls-4" d="M68.58,51.93a49.28,49.28,0,0,0-.87-5.29l-.57-.35C64.63,44.65,53.57,38,50.33,36a6.53,6.53,0,0,0,0,1.48C53.73,42.24,61.36,50.3,68.58,51.93Z"/></g><g id="Front_Leg" data-name="Front Leg"><path class="cls-1" d="M43.5,71.17A5,5,0,0,1,48.06,69c5.06.66,3.46,6.65,2.25,10.17A28.77,28.77,0,0,0,48.87,87c0,3.48,1.33,4.53-.29,5.89a13.77,13.77,0,0,1-8.84,2.46c-2.81-.64-2.88-6.42,1.6-7.89,1.24-2.7,1.19-5.46,1.09-8.34-.07-2-.24-6,1.07-8"/><path class="cls-2" d="M42.41,95.32c.4-.06.8-.13,1.19-.22A5.16,5.16,0,0,1,45,90.41C43.16,91.46,42.56,93.25,42.41,95.32Z"/><path class="cls-2" d="M39.7,95.36a5.9,5.9,0,0,1,1.35-5.22,5.36,5.36,0,0,0-2.54,4.48A2.25,2.25,0,0,0,39.7,95.36Z"/></g><g id="Front_Arm" data-name="Front Arm"><path class="cls-2" d="M42.3,63.85S41.72,67.2,44,68.32c1.92,1,4.28,1,5.46-.43,1.63-2,4-6-2.49-9.93-4-2.43-4.25,5.82-4.25,5.82Z"/><path class="cls-2" d="M42.86,47.79c.85,1.85,1.62,3.28,1.66,3.41s5.28-6.55,4.3-7.63S43.69,46.34,42.86,47.79Z"/><path class="cls-1" d="M48,38.21c5.67,5.47-6.1,12.71-6.1,12.71,1.28.81,2.9,3.58,4.11,5.6s1.69,1.69,3.17,3.37-2.74,4.19-2.74,4.19S32.28,56.43,32.32,51.53c0-.61,3.29-6.06,6.61-9.44C40.6,40.39,45.29,35.6,48,38.21Z"/><path class="cls-1" d="M42.5,61.36s-1,5.21,2.06,6.73c0,0,2.53.16,3.81-.76,0,0,3.19-4.9.81-7.44S42.5,61.36,42.5,61.36Z"/><path class="cls-2" d="M42.44,61.73s4.09,2.19,4.8,2.39a3.77,3.77,0,0,1-2.09-.31s-1,2,.17,3.24c0,0-1.88-.33-1.21-3.47L42.4,61.82Z"/></g><g id="Head-2" data-name="Head"><path class="cls-1" d="M46.11,22.21S48.24,9.65,53.45,9.44c3.43-.15,5.16,4.22,5.16,4.22a11,11,0,0,1,5.92,1.76s1-1.73,2.59-1.17,3.4,4.2,2.75,10.18A5.22,5.22,0,0,1,73.61,27a2.79,2.79,0,0,1-1.79,1.15c-1.08.09-5.74-1.61-7-.5a4.05,4.05,0,0,0-1.67,4S58,31.13,55.71,28.2,51.45,19.59,46.11,22.21Z"/><path class="cls-6" d="M63.84,23.12s1.28-4.22,3.74-5.4a45.86,45.86,0,0,0,.67,6.09A38.2,38.2,0,0,0,63.84,23.12Z"/><path class="cls-6" d="M52.7,14.47S55.87,16,58,22.57a45.27,45.27,0,0,0-7.18-.64A17.27,17.27,0,0,0,52.7,14.47Z"/><path class="cls-2" d="M54,17.39c.77,0,1.4.86,1.4,1.93s-.63,1.92-1.4,1.92-1.4-.86-1.4-1.92.62-1.93,1.4-1.93"/><path class="cls-2" d="M65.84,22.51c.61,0,1.1-.65,1.1-1.46s-.49-1.46-1.1-1.46a1,1,0,0,0-.34.08A3.86,3.86,0,0,0,64.75,21a.34.34,0,0,0,0,.1C64.74,21.86,65.23,22.51,65.84,22.51Z"/><path class="cls-7" d="M52,25.53S49.8,23,47.71,25.06c-1.73,1.68-.44,4.49-.44,4.49s.13-2.43,1.25-2.26c0,0,.94,6,9.78,12.07s11.3,5.5,13.22,5,4.11-1.48,3.37-3-5.26-5.39-5.26-5.39-2,1.52-5.87.17A32.33,32.33,0,0,1,50.34,26s.18-1.13,1.49-.5"/><path class="cls-8" d="M50.78,32.4a15,15,0,0,1,13.85,3.73l-1-.54s4.54-.22,5.17.41a10.77,10.77,0,0,1,4.7,8c.13,1.55-3.54,2.43-11.72-1.64C56.7,39.8,50.78,32.4,50.78,32.4Z"/><path class="cls-9" d="M60.72,33.43l.19.1Z"/><path class="cls-10" d="M69.26,35.89s-1.1,4.51-2.8,4c-.57-.17-.34-1.45-.57-2.33S65,35,65,35Z"/><path class="cls-10" d="M77.67,34.18s-.35,4.63-2.11,4.41c-.59-.07-.57-1.37-.94-2.2S73.34,34,73.34,34Z"/><path class="cls-3" d="M79.54,30.12c-.22-3.26-4.52-4.69-7.68-2.4-2.58-.57-5.44-2.29-8,.29a3,3,0,0,0-.79,3.58s-5.36-.86-7.21-3.59S51.59,21.61,49,21.35c-1.38-.13-3.71-.33-5.06,2.3s-2,7.38,8,14.9,14.38,9.55,16.56,9.54c2.77,0,2.94-1,6.13-1.48,1.63-.23,2.87-3,1.08-5.4s-6-5.29-6-5.29,4.52,3.84,5.26,5.39-1.45,2.53-3.37,3-4.39,1-13.22-5-9.78-12.07-9.78-12.07c-1.12-.17-1.25,2.26-1.25,2.26s-1.29-2.81.44-4.49c2.09-2,4.25.47,4.25.47h-.13c-1.31-.63-1.49.5-1.49.5A32.33,32.33,0,0,0,63.76,36.09c3.85,1.35,5.87-.17,5.87-.17a37.39,37.39,0,0,0,5.46-.44C76.47,35.11,79.85,34.53,79.54,30.12Z"/><path class="cls-4" d="M66.73,29.77c.9-.28,1.59.93.41,1.45-.17.45.1.94.82,1.11a1.42,1.42,0,0,1-1.23-2.56"/><path class="cls-4" d="M76.87,29.4c-.74-.24-1.31.76-.33,1.2.13.37-.09.77-.69.91,1.9.39,2-1.76,1-2.11"/></g></g><path class="cls-11" d="M216.79,67.44c.6,3.73,4,5.12,7.71,5.12s6.55-1.57,6.63-3.47c.13-2.88-2.13-4.59-5.33-5.21-2.21-.42-8.84-1.73-8.84-1.73-8.06-1.47-12.65-3.8-12.65-10.65,0-8.92,7.71-14.73,18.72-14.73,10.83,0,18,4.94,19.75,12.48l-12.65,2.51c-.43-2.69-3-5.11-7.28-5.11-3.72,0-5.59,1.56-5.93,3.38-.23,1.19.34,2.18,4.29,3,2.55.55,10.22,2.08,10.22,2.08,8.23,1.73,12,6.67,12,13.08,0,9.62-8.32,14.65-19.76,14.65-10.22,0-19-3.73-20.45-12.65Z"/><path class="cls-11" d="M343.17,47.66a42.75,42.75,0,0,1,.35,5.31c0,17.67-12.62,30.38-30.2,30.38S281.9,70,281.9,52.88s13.66-30.46,31.16-30.46c13,0,24.37,6.09,28.46,17.5l-13.84,4c-3.4-6.62-9-8.36-14.62-8.36-9.49,0-16.71,7.49-16.71,17.32s7.39,17.41,17.14,17.41c7.66,0,13.23-4,15.41-10.44H311.05V47.66Z"/><g id="Text-Default"><path class="cls-11" d="M150.72,81.05H136.45V58H111.9V81.05H97.54V22.73H111.9V45.45h24.55V22.73h14.27Z"/><path class="cls-11" d="M202.42,59.2c0,13.84-11,23.07-23.94,23.07-13.23,0-24.2-9.23-24.2-23.07s11-23,24.2-23C191.45,36.23,202.42,45.45,202.42,59.2ZM189,59.2c0-6.79-5.13-11.31-10.53-11.31A10.91,10.91,0,0,0,167.69,59.2c0,6.88,5.13,11.32,10.79,11.32C183.88,70.52,189,66.08,189,59.2Z"/><path class="cls-11" d="M282.35,79.14a23.77,23.77,0,0,1-11.92,3.22C259.55,82.36,253,76.44,253,65V48.41H245.1v-11H253V25.73l13.93-3V37.36h12.88v11H267V63.56c0,4.52,2.17,6.35,5.83,6.35a14.29,14.29,0,0,0,6.35-1.74Z"/><path class="cls-11" d="M387.57,53.37V81.05h-13.4V77.83a19.33,19.33,0,0,1-13.06,4.53c-9.74,0-16.27-5.66-16.27-14.28S351.37,54,363,54h11.14v-.87A5.82,5.82,0,0,0,368,47c-4.18,0-6.62,1.65-7.31,5.48l-13.14-2.7c1.91-8.44,9.57-13.75,20-13.75C379.83,36.05,387.57,42.23,387.57,53.37Zm-13.4,10.45v-1h-9.58c-3.48,0-5.65,1.83-5.65,4.53s2.43,4.52,6.09,4.52C369.82,71.91,374.17,68.69,374.17,63.82Z"/><path class="cls-11" d="M426.91,79.14A23.81,23.81,0,0,1,415,82.36c-10.88,0-17.4-5.92-17.4-17.41V48.41h-7.92v-11h7.92V25.73l13.92-3V37.36h12.88v11H411.5V63.56c0,4.52,2.18,6.35,5.83,6.35a14.3,14.3,0,0,0,6.36-1.74Z"/><path class="cls-11" d="M472.86,59.2c0,13.84-11,23.07-23.93,23.07-13.23,0-24.2-9.23-24.2-23.07s11-23,24.2-23C461.9,36.23,472.86,45.45,472.86,59.2Zm-13.4,0c0-6.79-5.14-11.31-10.53-11.31a10.91,10.91,0,0,0-10.8,11.31c0,6.88,5.14,11.32,10.8,11.32C454.32,70.52,459.46,66.08,459.46,59.2Z"/><path class="cls-11" d="M508.46,37.1,507.85,51h-2.53c-9.74,0-15.05,5-15.05,16.37V81.05H476.34V40.36l13.93-3v8.35c3.13-5.22,7.92-9,15.05-9A11.63,11.63,0,0,1,508.46,37.1Z"/></g></g></g></g></svg>